inDegrees=no
num_controls=7
num_derivatives=13
num_iterations=107
num_multipliers=7
num_parameters=0
num_slacks=7
num_states=26
objective=0.490625
objective_accelerations=0.055925
objective_balance=0.003936
objective_effort=0.048249
objective_height=0.376820
objective_ligament=0.005695
solver_duration=1230.738689
status=Solve_Succeeded
success=true
DataType=double
version=3
OpenSimVersion=4.5
endheader
time	/jointset/ground_pelvis/pelvis_tilt/value	/jointset/ground_pelvis/pelvis_tx/value	/jointset/ground_pelvis/pelvis_ty/value	/jointset/hip_r/hip_flexion_r/value	/jointset/hip_r/hip_adduction_r/value	/jointset/hip_r/hip_rotation_r/value	/jointset/back/lumbar_extension/value	/jointset/patellofemoral_r/patellar_flexion_r/value	/jointset/knee_r/knee_flexion_r/value	/jointset/knee_r/knee_adduction_r/value	/jointset/knee_r/knee_rotation_r/value	/jointset/ankle_r/ankle_angle_r/value	/jointset/subtalar_r/subtalar_angle_r/value	/jointset/ground_pelvis/pelvis_tilt/speed	/jointset/ground_pelvis/pelvis_tx/speed	/jointset/ground_pelvis/pelvis_ty/speed	/jointset/hip_r/hip_flexion_r/speed	/jointset/hip_r/hip_adduction_r/speed	/jointset/hip_r/hip_rotation_r/speed	/jointset/back/lumbar_extension/speed	/jointset/patellofemoral_r/patellar_flexion_r/speed	/jointset/knee_r/knee_flexion_r/speed	/jointset/knee_r/knee_adduction_r/speed	/jointset/knee_r/knee_rotation_r/speed	/jointset/ankle_r/ankle_angle_r/speed	/jointset/subtalar_r/subtalar_angle_r/speed	/forceset/tau_hip_flexion_r	/forceset/tau_hip_adduction_r	/forceset/tau_hip_rotation_r	/forceset/tau_knee_flexion_r	/forceset/tau_ankle_angle_r	/forceset/tau_subtalar_angle_r	/forceset/tau_lumbar_extension	lambda_cid13_p0	lambda_cid14_p0	lambda_cid14_p1	lambda_cid14_p2	lambda_cid14_p3	lambda_cid14_p4	lambda_cid14_p5	/jointset/ground_pelvis/pelvis_tilt/accel	/jointset/ground_pelvis/pelvis_tx/accel	/jointset/ground_pelvis/pelvis_ty/accel	/jointset/hip_r/hip_flexion_r/accel	/jointset/hip_r/hip_adduction_r/accel	/jointset/hip_r/hip_rotation_r/accel	/jointset/back/lumbar_extension/accel	/jointset/patellofemoral_r/patellar_flexion_r/accel	/jointset/knee_r/knee_flexion_r/accel	/jointset/knee_r/knee_adduction_r/accel	/jointset/knee_r/knee_rotation_r/accel	/jointset/ankle_r/ankle_angle_r/accel	/jointset/subtalar_r/subtalar_angle_r/accel	gamma_cid13_p0	gamma_cid14_p0	gamma_cid14_p1	gamma_cid14_p2	gamma_cid14_p3	gamma_cid14_p4	gamma_cid14_p5
0	-0.006515290752068444	0.09626024937675524	0.942724088367777	0.1762555222360518	-0.232152559953522	-0.2616404752139483	-0.038598046466844	0.07317863873450157	0.07317863873451017	0.1745324667320126	0.1745326986123358	0.03247278518263602	-0.0034518391902686	0	0	0	0	0	0	0	0	0	0	0	0	0	0.2295950407906972	-0.1256665426234557	-0.04247375942243123	-0.3924136987436082	0.3747141752283267	-0.1726282488866535	-0.1294567612764183	-39.07613094042119	69.57252696077688	-52.77450596727126	-2.567352449809024	-18.79965533257772	-672.2757568434189	30.17060370753646	-2.743773419335459	-1.665139555848616	-0.8252357175246512	11.80342670461077	-0.1629928470211159	3.212681665866336	-5.554775760834407	11.73715404058763	11.73715404058769	-2.836473966117209	0.2180515185628327	3.507494897126383	0.6014223082876076	1.13317156023602e-07	3.692665724410642e-08	-9.00979594795139e-07	2.120512720339074e-07	4.64636821555432e-08	7.234556108527262e-08	-3.933697135289367e-07
0.01	-0.006644640381820591	0.09618010285319464	0.9426843625663133	0.1768251737910608	-0.2321594126739979	-0.2614701531163057	-0.03887866802629003	0.07374864820394014	0.07374864820394977	0.1743914489758859	0.1745292637321448	0.03264575357105867	-0.003421068801908309	-0.02584787117586454	-0.01575802444821767	-0.007926101393155971	0.1132703631247297	-0.001405095893229514	0.03389961702560648	-0.05564175059604149	0.1134920027958403	0.1134920027958392	-0.02796804779435655	-0.0006717866217227765	0.03466706962689565	0.006136647062485011	0.2312093000926903	-0.1514743265199384	-0.04343383916683441	-0.4019074149492411	0.3875387550372953	-0.1534018208528097	-0.1294386708088419	-39.09533176327501	74.47690964279015	-43.7036199623348	-3.856016433117599	-24.80266259407713	-673.1973891086279	48.87945561170072	-2.501986730816897	-1.490432556304762	-0.7734240461849134	10.98984849312427	-0.1345547950710725	3.45394048609869	-5.4964905154506	11.07871707172964	11.07871707172952	-2.741766967554459	-0.207443457423851	3.457339820769978	0.617054221501914	1.5121179094334e-07	8.232034721790442e-09	-1.226110887223195e-06	1.763035375521774e-07	1.08354773609487e-07	-2.343611016851729e-07	-4.611548048819694e-07
0.02	-0.007031807276141481	0.09595051635175331	0.9425659504117231	0.178507730452669	-0.2321813737203261	-0.2609657670953687	-0.0397012302529871	0.07543827643586803	0.07543827643586819	0.1739777913855125	0.174519581044765	0.03316759802081114	-0.003329478279668636	-0.05156345291596403	-0.02988799557614863	-0.01573727062526845	0.222581021318272	-0.003021665170346719	0.06681278465884877	-0.1083881334505818	0.2239237524975764	0.2239237524975766	-0.05452796684709529	-0.001249561438806364	0.06977521226574668	0.01216402677588875	0.232823559394671	-0.1772821104164229	-0.04439391891125632	-0.4114011311548827	0.4003633348462566	-0.1341753928189693	-0.1294205803412701	-39.15190884116984	79.48377600933949	-34.63648525406968	-5.119298122334325	-31.01861569288623	-672.5480586296055	67.33206900860611	-2.717315532182701	-1.33952889179103	-0.8022492853159614	11.01148571837324	-0.2052875237986807	3.015391787393499	-4.975702212534316	11.12510342176676	11.12510342176727	-2.554848217793582	0.2368538794906708	3.595709499517719	0.5795688384713866	1.89106425863078e-07	-2.046258780052553e-08	-1.551242179651252e-06	1.405558030704475e-07	1.702458650634308e-07	-5.410677644556183e-07	-5.28939896235002e-07
0.03	-0.007674899785940379	0.09558525261402399	0.9423695608459233	0.1812663532520595	-0.2322208341118015	-0.2601399930677322	-0.0410374740328367	0.07821803269416253	0.07821803269416538	0.1733064573038645	0.1745072434583866	0.03403976110028024	-0.003179108205522972	-0.07690591146577411	-0.04314259224324257	-0.02355156707538226	0.3286537323644135	-0.004897992655362698	0.09816624743091833	-0.1585199248514243	0.3315233910395875	0.331523391039592	-0.07948547449064682	-0.001231482806952282	0.1044233494326388	0.01782853233422559	0.2242031391566147	-0.1968750508877654	-0.04177769475503847	-0.4001147388709646	0.3784417118371743	-0.1086894987962988	-0.1228301236319992	-39.24411287471018	73.48718980353794	-24.76412624648983	-6.526220516563286	-27.60848576561076	-671.3507282067407	85.79844002629719	-2.420328942754796	-1.315066795314912	-0.7727679587533661	10.331692782554	-0.183142246703266	3.169020873692912	-4.980812954091186	10.50173987769761	10.50173987769795	-2.428431341010477	-0.1176585501951083	3.364288649105954	0.5474452231102707	2.246285434484427e-07	-2.004593672095231e-08	-1.797356721598935e-06	2.229715006214003e-07	2.022446626002599e-07	-6.981841991406857e-07	-6.759970247822703e-07
